<?xml version="1.0" encoding="UTF-8"?>
<svg id="Layer_2" xmlns="http://www.w3.org/2000/svg" viewBox="0 0 261.8 480.92">
  <defs>
    <style>
      .cls-1 {
        fill: #000000;
      }
    </style>
  </defs>
  <g id="Layer_1-2" data-name="Layer_1">
    <path class="cls-1" d="M107.79,60.21c-1.89,2.17-2.83,4.93-2.83,8.28,0,1.67.24,3.28.73,4.81.49,1.54,1.43,3.01,2.83,4.4,1.4,1.4,3.32,2.69,5.76,3.88,2.44,1.18,5.62,2.13,9.53,2.82l39.38,7.75c14.24,2.8,26.18,6.29,35.81,10.48,9.64,4.18,17.38,9.07,23.25,14.66,5.86,5.58,10.09,11.8,12.67,18.64,2.58,6.84,3.88,14.24,3.88,22.2,0,12.43-2.9,23.32-8.7,32.67-5.79,9.36-13.4,17.14-22.83,23.35-9.42,6.22-20.03,10.9-31.83,14.04-11.8,3.14-23.7,4.71-35.71,4.71-7.82,0-14.91-.49-21.26-1.47-6.36-.98-12.08-2.3-17.17-3.98-1.19-.39-2.36-.8-3.49-1.23v116.68h36.65l15.08-21.58v-57.38h112.26v57.38h-38.95l-40.43,46.71,41.27,49.85h37.92v63.04h-60.75l-70.38-92.99h-32.67v35.6h22.2v57.39H0v-57.39h33.51v-211.12H0v-57.38h97.81v.58h.24v1.26c.14,4.05,1.39,7.58,3.77,10.58,2.37,3,5.48,5.55,9.32,7.64,3.84,2.1,8.2,3.67,13.09,4.72,4.89,1.04,10.05,1.57,15.5,1.57,12.57,0,21.71-1.64,27.44-4.93,5.72-3.27,8.58-7.5,8.58-12.67,0-4.04-1.39-7.5-4.19-10.36-2.79-2.86-7.75-5.14-14.87-6.81l-40.21-8.59c-25.27-4.88-44.33-13.02-57.18-24.4s-19.27-26-19.27-43.88c0-10.47,2.45-20,7.33-28.59,4.89-8.58,11.52-15.91,19.9-21.99,8.38-6.07,18.19-10.78,29.43-14.13,11.24-3.36,23.28-5.03,36.13-5.03,8.79,0,16.61.52,23.45,1.57,6.84,1.05,12.99,2.41,18.44,4.08,5.44,1.68,10.22,3.67,14.34,5.97,4.12,2.31,7.78,4.72,11,7.23h61.75v58.22h-79.35c0-3.35-1.08-6.56-3.24-9.63-2.17-3.07-5.34-5.76-9.53-8.06-4.19-2.31-9.32-4.16-15.4-5.55-6.07-1.4-12.95-2.1-20.63-2.1-2.93,0-6.07.25-9.42.73-3.35.49-6.46,1.37-9.32,2.62-2.86,1.26-5.24,2.97-7.12,5.13Z"/>
  </g>
</svg>